<svg width="400" height="416" viewBox="0 0 400 416" fill="none" xmlns="http://www.w3.org/2000/svg">
<rect x="153.5" y="169.5" width="246" height="246" fill="#E79E00" fill-opacity="0.04" stroke="#E79E00"/>
<path d="M65.2474 108.33L213.5 0.618039L361.753 108.33L305.125 282.611H121.875L65.2474 108.33Z" fill="#E79E00" fill-opacity="0.04" stroke="#E79E00"/>
<circle cx="153.5" cy="262.5" r="153" fill="#E79E00" fill-opacity="0.04" stroke="#E79E00"/>
<path d="M338.174 326.75V309.841H342.087C342.745 309.849 343.365 309.919 343.945 310.05C344.534 310.174 345.076 310.352 345.571 310.584C346.26 310.902 346.868 311.32 347.394 311.839C347.929 312.35 348.354 312.942 348.672 313.616C348.958 314.188 349.175 314.816 349.322 315.497C349.477 316.178 349.558 316.906 349.566 317.68V318.923C349.566 319.666 349.493 320.371 349.345 321.036C349.206 321.702 349.001 322.314 348.73 322.871C348.451 323.452 348.099 323.978 347.673 324.451C347.247 324.923 346.771 325.325 346.245 325.658C345.687 326.007 345.056 326.274 344.352 326.46C343.655 326.645 342.9 326.742 342.087 326.75H338.174ZM340.357 311.606V324.996H342.087C342.707 324.989 343.268 324.911 343.771 324.764C344.282 324.617 344.735 324.408 345.13 324.137C345.548 323.858 345.908 323.518 346.21 323.115C346.52 322.705 346.763 322.248 346.941 321.745C347.096 321.334 347.212 320.893 347.29 320.421C347.367 319.941 347.41 319.441 347.418 318.923V317.657C347.41 317.13 347.363 316.627 347.278 316.147C347.201 315.659 347.081 315.207 346.918 314.788C346.709 314.246 346.427 313.759 346.071 313.325C345.722 312.884 345.292 312.528 344.781 312.257C344.418 312.055 344.011 311.901 343.562 311.792C343.113 311.676 342.621 311.614 342.087 311.606H340.357ZM358.229 326.982C357.347 326.982 356.534 326.831 355.791 326.529C355.055 326.227 354.424 325.805 353.898 325.264C353.371 324.722 352.961 324.079 352.667 323.336C352.373 322.592 352.225 321.783 352.225 320.909V320.421C352.225 319.407 352.388 318.501 352.713 317.703C353.038 316.898 353.472 316.217 354.014 315.659C354.548 315.11 355.156 314.688 355.837 314.394C356.526 314.099 357.231 313.952 357.951 313.952C358.857 313.952 359.646 314.111 360.32 314.428C361.001 314.738 361.566 315.168 362.015 315.717C362.464 316.275 362.797 316.929 363.014 317.68C363.239 318.431 363.351 319.244 363.351 320.119V321.083H354.374V321.164C354.428 321.776 354.548 322.314 354.734 322.778C354.927 323.243 355.191 323.653 355.524 324.009C355.864 324.389 356.275 324.687 356.755 324.904C357.235 325.12 357.765 325.229 358.346 325.229C359.112 325.229 359.793 325.074 360.39 324.764C360.986 324.454 361.481 324.044 361.876 323.533L363.188 324.555C362.77 325.19 362.143 325.755 361.307 326.251C360.479 326.738 359.453 326.982 358.229 326.982ZM357.951 315.717C357.517 315.717 357.107 315.799 356.72 315.961C356.333 316.116 355.984 316.345 355.675 316.647C355.365 316.956 355.102 317.336 354.885 317.785C354.676 318.226 354.529 318.737 354.444 319.318H361.202V319.213C361.202 318.826 361.129 318.412 360.982 317.97C360.835 317.521 360.63 317.134 360.366 316.809C360.103 316.484 359.77 316.221 359.368 316.019C358.973 315.818 358.5 315.717 357.951 315.717ZM371.248 326.75L366.08 314.185H368.286L371.887 323.661L372.084 324.439L372.293 323.661L375.812 314.185H378.007L372.885 326.75H371.248Z" fill="#E79E00"/>
<path d="M77.1877 321.913C77.0871 322.695 76.8858 323.415 76.5838 324.073C76.2819 324.724 75.8909 325.281 75.4109 325.746C74.9231 326.218 74.3464 326.586 73.6805 326.849C73.0225 327.105 72.287 327.232 71.474 327.232C70.7772 327.232 70.1424 327.135 69.5695 326.942C69.0043 326.741 68.5011 326.466 68.0598 326.117C67.6107 325.769 67.2236 325.359 66.8984 324.886C66.581 324.414 66.3178 323.899 66.1088 323.342C65.892 322.784 65.7294 322.2 65.621 321.588C65.5204 320.977 65.4662 320.357 65.4584 319.73V317.373C65.4662 316.746 65.5204 316.126 65.621 315.515C65.7294 314.903 65.892 314.318 66.1088 313.761C66.3178 313.204 66.581 312.689 66.8984 312.216C67.2236 311.736 67.6107 311.322 68.0598 310.974C68.5011 310.625 69.0043 310.354 69.5695 310.161C70.1346 309.96 70.7695 309.859 71.474 309.859C72.3179 309.859 73.0728 309.991 73.7386 310.254C74.4044 310.509 74.9773 310.873 75.4574 311.345C75.9374 311.825 76.3206 312.398 76.6071 313.064C76.9013 313.73 77.0948 314.466 77.1877 315.271H75.0393C74.9696 314.76 74.8496 314.284 74.6793 313.842C74.5089 313.401 74.2805 313.014 73.9941 312.681C73.7076 312.348 73.3554 312.089 72.9373 311.903C72.527 311.709 72.0392 311.613 71.474 311.613C70.9631 311.613 70.5101 311.698 70.1153 311.868C69.7282 312.031 69.3953 312.255 69.1166 312.542C68.8301 312.828 68.5901 313.161 68.3965 313.54C68.2107 313.92 68.0598 314.322 67.9436 314.748C67.8275 315.174 67.7423 315.611 67.6881 316.06C67.6417 316.502 67.6185 316.931 67.6185 317.349V319.73C67.6185 320.148 67.6417 320.582 67.6881 321.031C67.7423 321.472 67.8275 321.906 67.9436 322.332C68.0598 322.765 68.2107 323.172 68.3965 323.551C68.5824 323.93 68.8185 324.263 69.1049 324.55C69.3914 324.844 69.7282 325.076 70.1153 325.246C70.5024 325.409 70.9553 325.49 71.474 325.49C72.0392 325.49 72.527 325.401 72.9373 325.223C73.3554 325.045 73.7076 324.793 73.9941 324.468C74.2805 324.151 74.5089 323.775 74.6793 323.342C74.8496 322.901 74.9696 322.424 75.0393 321.913H77.1877ZM82.8666 320.218V327H80.7181V310.091H86.1995C86.9583 310.107 87.6744 310.227 88.348 310.451C89.0293 310.676 89.6254 311.001 90.1364 311.427C90.6474 311.853 91.05 312.379 91.3442 313.006C91.6461 313.633 91.7971 314.353 91.7971 315.166C91.7971 315.979 91.6461 316.699 91.3442 317.326C91.05 317.946 90.6474 318.468 90.1364 318.894C89.6254 319.32 89.0293 319.645 88.348 319.87C87.6744 320.094 86.9583 320.21 86.1995 320.218H82.8666ZM82.8666 318.453H86.1995C86.695 318.445 87.1518 318.368 87.5699 318.22C87.988 318.066 88.3518 317.849 88.6615 317.57C88.9712 317.291 89.2112 316.955 89.3815 316.56C89.5596 316.157 89.6486 315.7 89.6486 315.189C89.6486 314.678 89.5596 314.218 89.3815 313.807C89.2112 313.397 88.9751 313.049 88.6731 312.762C88.3634 312.476 87.9957 312.255 87.5699 312.1C87.1518 311.945 86.695 311.864 86.1995 311.856H82.8666V318.453Z" fill="#E79E00"/>
<path d="M171.947 76V59.0912H175.861C176.519 59.099 177.139 59.1687 177.719 59.3003C178.308 59.4241 178.85 59.6022 179.345 59.8345C180.034 60.1519 180.642 60.57 181.168 61.0887C181.703 61.5997 182.128 62.1919 182.446 62.8655C182.732 63.4384 182.949 64.0655 183.096 64.7468C183.251 65.4281 183.332 66.1559 183.34 66.9301V68.1727C183.34 68.916 183.266 69.6205 183.119 70.2863C182.98 70.9521 182.775 71.5638 182.504 72.1212C182.225 72.7019 181.873 73.2283 181.447 73.7006C181.021 74.1729 180.545 74.5755 180.019 74.9084C179.461 75.2568 178.83 75.5239 178.126 75.7097C177.429 75.8955 176.674 75.9923 175.861 76H171.947ZM174.131 60.8564V74.2464H175.861C176.48 74.2387 177.042 74.1612 177.545 74.0141C178.056 73.867 178.509 73.658 178.904 73.387C179.322 73.1083 179.682 72.7677 179.984 72.3651C180.293 71.9547 180.537 71.498 180.715 70.9947C180.87 70.5844 180.986 70.1431 181.064 69.6708C181.141 69.1908 181.184 68.6914 181.192 68.1727V66.9069C181.184 66.3804 181.137 65.8772 181.052 65.3972C180.975 64.9094 180.855 64.4565 180.692 64.0384C180.483 63.4965 180.201 63.0087 179.844 62.5752C179.496 62.1339 179.066 61.7777 178.555 61.5068C178.191 61.3055 177.785 61.1506 177.336 61.0422C176.887 60.9261 176.395 60.8642 175.861 60.8564H174.131ZM192.003 76.2323C191.121 76.2323 190.308 76.0813 189.565 75.7793C188.829 75.4774 188.198 75.0555 187.672 74.5135C187.145 73.9716 186.735 73.329 186.441 72.5857C186.146 71.8425 185.999 71.0334 185.999 70.1586V69.6708C185.999 68.6566 186.162 67.7508 186.487 66.9533C186.812 66.1482 187.246 65.4669 187.788 64.9094C188.322 64.3597 188.93 63.9378 189.611 63.6436C190.3 63.3494 191.005 63.2023 191.725 63.2023C192.631 63.2023 193.42 63.361 194.094 63.6784C194.775 63.9881 195.34 64.4178 195.789 64.9675C196.238 65.5249 196.571 66.1791 196.788 66.9301C197.013 67.6811 197.125 68.494 197.125 69.3689V70.3328H188.148V70.4141C188.202 71.0257 188.322 71.5638 188.508 72.0283C188.701 72.4928 188.965 72.9032 189.298 73.2593C189.638 73.6387 190.049 73.9367 190.529 74.1535C191.009 74.3703 191.539 74.4787 192.12 74.4787C192.886 74.4787 193.567 74.3238 194.163 74.0141C194.76 73.7045 195.255 73.2941 195.65 72.7832L196.962 73.8051C196.544 74.44 195.917 75.0051 195.081 75.5006C194.252 75.9884 193.227 76.2323 192.003 76.2323ZM191.725 64.9675C191.291 64.9675 190.881 65.0488 190.494 65.2114C190.107 65.3662 189.758 65.5946 189.449 65.8965C189.139 66.2062 188.876 66.5856 188.659 67.0346C188.45 67.4759 188.303 67.9869 188.218 68.5676H194.976V68.4631C194.976 68.0759 194.903 67.6617 194.756 67.2204C194.609 66.7714 194.403 66.3843 194.14 66.0591C193.877 65.734 193.544 65.4707 193.141 65.2694C192.747 65.0681 192.274 64.9675 191.725 64.9675ZM209.086 72.667C209.086 72.4115 209.036 72.1831 208.935 71.9818C208.835 71.7728 208.664 71.5831 208.424 71.4128C208.184 71.2425 207.867 71.0876 207.472 70.9483C207.077 70.8012 206.586 70.6696 205.997 70.5534C205.277 70.4063 204.619 70.2283 204.023 70.0192C203.435 69.8102 202.931 69.5586 202.513 69.2644C202.087 68.9779 201.758 68.6411 201.526 68.254C201.294 67.8592 201.178 67.4024 201.178 66.8837C201.178 66.3727 201.298 65.8965 201.538 65.4552C201.778 65.0062 202.115 64.6152 202.548 64.2823C202.982 63.9494 203.497 63.6862 204.093 63.4926C204.697 63.2991 205.359 63.2023 206.079 63.2023C206.853 63.2023 207.55 63.3029 208.169 63.5042C208.788 63.7055 209.315 63.9842 209.748 64.3404C210.182 64.6965 210.515 65.1146 210.747 65.5946C210.987 66.0669 211.107 66.5779 211.107 67.1275H208.959C208.959 66.8566 208.889 66.5933 208.75 66.3378C208.61 66.0746 208.417 65.8424 208.169 65.6411C207.921 65.4398 207.619 65.2772 207.263 65.1533C206.915 65.0294 206.52 64.9675 206.079 64.9675C205.622 64.9675 205.219 65.0178 204.871 65.1185C204.53 65.2191 204.248 65.3546 204.023 65.5249C203.791 65.6953 203.617 65.8927 203.5 66.1172C203.384 66.3417 203.326 66.574 203.326 66.814C203.326 67.0617 203.373 67.2824 203.466 67.4759C203.558 67.6695 203.721 67.8437 203.953 67.9985C204.178 68.1534 204.48 68.2927 204.859 68.4166C205.246 68.5405 205.734 68.6605 206.322 68.7766C207.097 68.9392 207.79 69.1289 208.401 69.3457C209.013 69.5547 209.528 69.8063 209.946 70.1005C210.364 70.4025 210.681 70.7508 210.898 71.1457C211.123 71.5405 211.235 71.9973 211.235 72.5161C211.235 73.0735 211.107 73.5806 210.852 74.0374C210.604 74.4942 210.255 74.8851 209.806 75.2103C209.357 75.5355 208.819 75.7871 208.192 75.9652C207.565 76.1432 206.88 76.2323 206.137 76.2323C205.285 76.2323 204.526 76.12 203.86 75.8955C203.195 75.6632 202.633 75.3574 202.177 74.978C201.712 74.6064 201.356 74.1729 201.108 73.6774C200.868 73.1819 200.748 72.667 200.748 72.1328H202.897C202.928 72.5741 203.044 72.9457 203.245 73.2477C203.454 73.5496 203.713 73.7935 204.023 73.9793C204.325 74.1651 204.662 74.2967 205.033 74.3742C205.405 74.4516 205.773 74.4903 206.137 74.4903C206.71 74.4903 207.209 74.4245 207.635 74.2929C208.061 74.1535 208.393 73.9638 208.633 73.7238C208.781 73.5767 208.893 73.4141 208.97 73.2361C209.048 73.058 209.086 72.8683 209.086 72.667ZM215.357 63.4346H221.78V74.1419H225.879V76H215.357V74.1419H219.631V65.3043H215.357V63.4346ZM219.352 60.1364C219.352 59.9506 219.379 59.7764 219.434 59.6138C219.496 59.4512 219.589 59.3119 219.712 59.1957C219.813 59.0951 219.941 59.0177 220.096 58.9635C220.258 58.9015 220.44 58.8706 220.641 58.8706C220.843 58.8706 221.021 58.9015 221.176 58.9635C221.331 59.0177 221.458 59.0951 221.559 59.1957C221.683 59.3041 221.776 59.4396 221.838 59.6022C221.9 59.7648 221.931 59.9429 221.931 60.1364C221.931 60.4848 221.822 60.7751 221.605 61.0074C221.389 61.2397 221.067 61.3558 220.641 61.3558C220.208 61.3558 219.883 61.2397 219.666 61.0074C219.457 60.7751 219.352 60.4848 219.352 60.1364ZM228.91 69.6128C228.91 68.676 229.022 67.8166 229.247 67.0346C229.479 66.2449 229.812 65.5675 230.246 65.0023C230.679 64.4372 231.206 63.9959 231.825 63.6784C232.444 63.361 233.145 63.2023 233.927 63.2023C234.43 63.2023 234.891 63.2604 235.309 63.3765C235.735 63.4926 236.118 63.6629 236.459 63.8875C236.644 64.0036 236.819 64.1391 236.981 64.2939C237.152 64.4488 237.31 64.6191 237.457 64.8049L237.562 63.4346H239.513V75.7329C239.513 76.5613 239.381 77.2968 239.118 77.9394C238.863 78.582 238.503 79.1278 238.038 79.5769C237.566 80.0259 237.004 80.3666 236.354 80.5988C235.704 80.8311 234.984 80.9472 234.194 80.9472C233.869 80.9472 233.497 80.9085 233.079 80.8311C232.661 80.7614 232.239 80.6414 231.813 80.4711C231.38 80.3085 230.962 80.0878 230.559 79.8091C230.164 79.5304 229.824 79.1859 229.537 78.7755L230.652 77.4865C230.915 77.8039 231.186 78.071 231.465 78.2878C231.744 78.5123 232.026 78.6904 232.313 78.822C232.599 78.9536 232.886 79.0465 233.172 79.1007C233.459 79.1627 233.745 79.1936 234.031 79.1936C234.542 79.1936 235.003 79.1201 235.413 78.973C235.824 78.8259 236.176 78.6091 236.47 78.3226C236.757 78.0439 236.977 77.6955 237.132 77.2774C237.287 76.8594 237.364 76.3794 237.364 75.8374V74.7574C237.202 74.9432 237.028 75.1135 236.842 75.2684C236.664 75.4232 236.47 75.5587 236.261 75.6748C235.936 75.8529 235.576 75.9884 235.181 76.0813C234.786 76.1819 234.36 76.2323 233.904 76.2323C233.137 76.2323 232.444 76.0697 231.825 75.7445C231.206 75.4193 230.683 74.9703 230.257 74.3974C229.824 73.8245 229.491 73.1509 229.258 72.3767C229.026 71.5947 228.91 70.7547 228.91 69.8566V69.6128ZM231.058 69.8566C231.058 70.4683 231.12 71.0489 231.244 71.5986C231.376 72.1483 231.581 72.6322 231.86 73.0503C232.131 73.4683 232.479 73.8012 232.905 74.049C233.331 74.289 233.842 74.409 234.438 74.409C234.81 74.409 235.142 74.3664 235.437 74.2813C235.739 74.1883 236.01 74.0606 236.25 73.898C236.482 73.7354 236.691 73.5419 236.877 73.3174C237.062 73.0928 237.225 72.8451 237.364 72.5741V66.814C237.225 66.5508 237.062 66.3107 236.877 66.094C236.691 65.8772 236.478 65.6875 236.238 65.5249C235.998 65.3701 235.731 65.2501 235.437 65.1649C235.142 65.072 234.817 65.0256 234.461 65.0256C233.857 65.0256 233.339 65.1494 232.905 65.3972C232.479 65.6449 232.131 65.9778 231.86 66.3959C231.581 66.8217 231.376 67.3134 231.244 67.8708C231.12 68.4205 231.058 69.0011 231.058 69.6128V69.8566ZM243.589 76V63.4346H245.517L245.668 65.2927C245.854 65.0294 246.055 64.7894 246.272 64.5726C246.496 64.3481 246.732 64.1546 246.98 63.992C247.352 63.7442 247.754 63.5546 248.188 63.4229C248.629 63.2836 249.094 63.21 249.581 63.2023C250.24 63.2023 250.836 63.2952 251.37 63.481C251.912 63.6668 252.373 63.9571 252.752 64.352C253.131 64.7468 253.422 65.2501 253.623 65.8617C253.832 66.4656 253.936 67.1856 253.936 68.0218V76H251.788V68.0682C251.788 67.5108 251.726 67.0385 251.602 66.6514C251.478 66.2643 251.296 65.9507 251.056 65.7107C250.809 65.4707 250.507 65.2965 250.151 65.1881C249.802 65.0798 249.4 65.0256 248.943 65.0256C248.548 65.0256 248.18 65.0836 247.839 65.1998C247.499 65.3081 247.185 65.4591 246.899 65.6527C246.667 65.823 246.45 66.0204 246.248 66.2449C246.055 66.4695 245.885 66.7172 245.738 66.9882V76H243.589Z" fill="#E79E00"/>
<path d="M212.16 226.628H234.846C235.224 226.628 235.533 226.319 235.533 225.941V218.723C235.533 218.345 235.224 218.035 234.846 218.035H231.409C231.031 218.035 230.721 218.345 230.721 218.723V221.816H216.285V218.723C216.285 218.345 215.976 218.035 215.597 218.035H212.16C211.782 218.035 211.473 218.345 211.473 218.723V225.941C211.473 226.319 211.782 226.628 212.16 226.628ZM241.377 216.059C241.377 216.97 241.739 217.845 242.383 218.489C243.028 219.134 243.902 219.496 244.814 219.496C245.725 219.496 246.6 219.134 247.244 218.489C247.889 217.845 248.251 216.97 248.251 216.059C248.251 215.147 247.889 214.273 247.244 213.628C246.6 212.984 245.725 212.622 244.814 212.622C243.902 212.622 243.028 212.984 242.383 213.628C241.739 214.273 241.377 215.147 241.377 216.059ZM261.914 201.657L259.878 198.099C259.786 197.942 259.636 197.828 259.461 197.781C259.285 197.735 259.098 197.759 258.941 197.85L254.584 200.394L247.856 181.815C247.501 180.707 246.802 179.74 245.862 179.054C244.921 178.368 243.787 177.999 242.623 178H205.389C202.407 178 199.76 179.925 198.841 182.769L192.43 200.402L188.065 197.859C187.908 197.768 187.721 197.743 187.545 197.79C187.37 197.837 187.22 197.951 187.129 198.108L185.092 201.657C184.903 201.983 185.015 202.396 185.341 202.585L190.531 205.61L189.285 209.047C189.182 209.322 189.131 209.614 189.131 209.906V239.827C189.131 241.176 190.145 242.268 191.391 242.268H197.2C198.257 242.268 199.176 241.468 199.399 240.351L200.061 237.112H246.945L247.607 240.351C247.839 241.468 248.75 242.268 249.806 242.268H255.615C256.861 242.268 257.875 241.176 257.875 239.827V209.906C257.875 209.614 257.824 209.322 257.721 209.047L256.475 205.61L261.656 202.585C261.812 202.495 261.927 202.347 261.975 202.173C262.023 202 262.001 201.814 261.914 201.657ZM251.688 210.559V230.925H195.318V210.559L196.658 206.864H250.348L251.688 210.559ZM204.658 184.874L204.701 184.763L204.736 184.651C204.83 184.367 205.088 184.178 205.389 184.178H242.133L248.612 202.052H198.411L204.658 184.874ZM198.755 216.059C198.755 216.97 199.117 217.845 199.762 218.489C200.406 219.134 201.281 219.496 202.192 219.496C203.104 219.496 203.978 219.134 204.623 218.489C205.267 217.845 205.629 216.97 205.629 216.059C205.629 215.147 205.267 214.273 204.623 213.628C203.978 212.984 203.104 212.622 202.192 212.622C201.281 212.622 200.406 212.984 199.762 213.628C199.117 214.273 198.755 215.147 198.755 216.059Z" fill="#FFAD33"/>
<path d="M205.845 254.49L208.696 263.245L211.774 254.49H214.54V272H212.376V265.013L212.556 257.701L209.321 267.129H208.046L205.076 257.953L205.256 265.013V272H203.091V254.49H205.845ZM223.945 272.241C223.031 272.241 222.189 272.084 221.419 271.771C220.658 271.459 220.004 271.022 219.459 270.461C218.914 269.899 218.489 269.234 218.184 268.464C217.88 267.695 217.727 266.857 217.727 265.951V265.446C217.727 264.395 217.896 263.457 218.232 262.631C218.569 261.798 219.018 261.092 219.579 260.515C220.133 259.946 220.762 259.509 221.468 259.204C222.181 258.899 222.911 258.747 223.656 258.747C224.594 258.747 225.412 258.911 226.11 259.24C226.815 259.561 227.401 260.006 227.866 260.575C228.331 261.152 228.675 261.83 228.9 262.607C229.132 263.385 229.249 264.227 229.249 265.133V266.131H219.952V266.215C220.008 266.849 220.133 267.406 220.325 267.887C220.525 268.368 220.798 268.793 221.143 269.162C221.496 269.555 221.921 269.863 222.418 270.088C222.915 270.312 223.464 270.425 224.065 270.425C224.859 270.425 225.565 270.264 226.182 269.943C226.799 269.623 227.312 269.198 227.721 268.669L229.08 269.727C228.647 270.384 227.998 270.97 227.132 271.483C226.274 271.988 225.212 272.241 223.945 272.241ZM223.656 260.575C223.207 260.575 222.782 260.659 222.382 260.828C221.981 260.988 221.62 261.224 221.299 261.537C220.978 261.858 220.706 262.251 220.481 262.716C220.265 263.173 220.113 263.702 220.024 264.303H227.024V264.195C227.024 263.794 226.948 263.365 226.795 262.908C226.643 262.443 226.43 262.042 226.158 261.705C225.885 261.369 225.54 261.096 225.124 260.888C224.715 260.679 224.226 260.575 223.656 260.575ZM239.194 266.336H236.958V254.49H239.194V266.336ZM236.741 270.833C236.741 270.449 236.853 270.128 237.078 269.871C237.31 269.615 237.655 269.486 238.112 269.486C238.569 269.486 238.914 269.615 239.146 269.871C239.387 270.128 239.507 270.449 239.507 270.833C239.507 271.202 239.387 271.511 239.146 271.759C238.914 272.008 238.569 272.132 238.112 272.132C237.655 272.132 237.31 272.008 237.078 271.759C236.853 271.511 236.741 271.202 236.741 270.833Z" fill="white"/>
</svg>
